Coordinates
version=1
nRows=11
nColumns=40
inDegrees=yes

Units are S.I. units (second, meters, Newtons, ...)
If the header above contains a line with 'inDegrees', this indicates whether rotational values are in degrees (yes) or radians (no).

endheader
time	pelvis_tilt	pelvis_list	pelvis_rotation	pelvis_tx	pelvis_ty	pelvis_tz	hip_flexion_r	hip_adduction_r	hip_rotation_r	knee_angle_r	knee_angle_r_beta	ankle_angle_r	subtalar_angle_r	mtp_angle_r	hip_flexion_l	hip_adduction_l	hip_rotation_l	knee_angle_l	knee_angle_l_beta	ankle_angle_l	subtalar_angle_l	mtp_angle_l	lumbar_extension	lumbar_bending	lumbar_rotation	arm_flex_r	arm_add_r	arm_rot_r	elbow_flex_r	pro_sup_r	wrist_flex_r	wrist_dev_r	arm_flex_l	arm_add_l	arm_rot_l	elbow_flex_l	pro_sup_l	wrist_flex_l	wrist_dev_l
      3.75000000	     -3.23639001	      3.08156537	      0.49072932	     -0.44100247	      0.79126426	     -0.80577274	     49.23408470	     -1.69376276	     -8.30384936	     73.86576369	      1.28920078	     22.17453739	      0.00000000	      0.00000000	     55.50716900	     -4.56934417	    -14.34591634	     19.83875426	      0.34625158	    -28.03431316	      0.00000000	      0.00000000	    -27.65918691	    -26.39021293	    -24.55728705	     79.21417908	    -15.25571947	     19.67923072	     55.71963514	     87.61933580	      0.00000000	      0.00000000	     89.96143742	     11.75205485	     27.81212538	     37.87788032	     40.64561846	      0.00000000	      0.00000000
      3.75500000	     -3.23107337	      3.07839988	      0.52195119	     -0.44080227	      0.79247768	     -0.80559798	     49.05297696	     -1.66936806	     -8.30293619	     73.55897920	      1.28384638	     22.03286411	      0.00000000	      0.00000000	     55.42475101	     -4.55406024	    -14.34594162	     19.82554237	      0.34602099	    -28.06656748	      0.00000000	      0.00000000	    -27.61178085	    -26.43548157	    -24.59529653	     79.17707769	    -15.27724323	     19.69326536	     55.72724586	     87.62101776	      0.00000000	      0.00000000	     89.96138316	     11.75791849	     27.82620724	     37.85685658	     40.64103906	      0.00000000	      0.00000000
      3.76000000	     -3.23127891	      3.06345175	      0.55971732	     -0.44063182	      0.79382511	     -0.80547619	     48.85985253	     -1.65788309	     -8.34275572	     73.23003535	      1.27810523	     21.88184847	      0.00000000	      0.00000000	     55.32286390	     -4.52294442	    -14.32404130	     19.77468028	      0.34513328	    -28.09314578	      0.00000000	      0.00000000	    -27.56456300	    -26.44746984	    -24.61957100	     79.15592901	    -15.27824140	     19.72270324	     55.76719041	     87.62348476	      0.00000000	      0.00000000	     89.96131574	     11.76112624	     27.85916841	     37.81467900	     40.63293375	      0.00000000	      0.00000000
      3.76500000	     -3.21239522	      3.05466821	      0.57173669	     -0.44047709	      0.79508787	     -0.80528931	     48.69367013	     -1.63424373	     -8.36846308	     72.96329482	      1.27344973	     21.75410544	      0.00000000	      0.00000000	     55.20957491	     -4.52187125	    -14.28037487	     19.75211803	      0.34473949	    -28.11014205	      0.00000000	      0.00000000	    -27.52521417	    -26.46794348	    -24.61817915	     79.14263472	    -15.29001426	     19.73370436	     55.77904000	     87.62288857	      0.00000000	      0.00000000	     89.96132962	     11.76419209	     27.88398407	     37.80960073	     40.62775881	      0.00000000	      0.00000000
      3.77000000	     -3.22003840	      3.04749527	      0.58148490	     -0.44028901	      0.79631788	     -0.80512028	     48.53608814	     -1.61873194	     -8.38305611	     72.70634562	      1.26896512	     21.63344059	      0.00000000	      0.00000000	     55.14159060	     -4.52451234	    -14.24837228	     19.75419836	      0.34477580	    -28.12034321	      0.00000000	      0.00000000	    -27.45505444	    -26.51158032	    -24.63309359	     79.14688395	    -15.30509186	     19.73800794	     55.79829644	     87.62293252	      0.00000000	      0.00000000	     89.96127290	     11.76360107	     27.90885006	     37.78957078	     40.62243959	      0.00000000	      0.00000000
      3.77500000	     -3.16862417	      2.97823677	      0.59650314	     -0.44005535	      0.79775822	     -0.80492130	     48.27312846	     -1.54639153	     -8.45675898	     72.34481390	      1.26265520	     21.41589071	      0.00000000	      0.00000000	     54.98845120	     -4.57165367	    -14.23031538	     19.71757096	      0.34413653	    -28.08055581	      0.00000000	      0.00000000	    -27.43233862	    -26.47608413	    -24.61784795	     79.11345286	    -15.31150401	     19.75521101	     55.82848120	     87.62182530	      0.00000000	      0.00000000	     89.96135278	     11.74382960	     27.98085796	     37.74529292	     40.60970354	      0.00000000	      0.00000000
      3.78000000	     -3.19021926	      3.02376992	      0.63123966	     -0.43987641	      0.79899512	     -0.80480917	     48.14479108	     -1.59659100	     -8.46881726	     72.09205129	      1.25824366	     21.32710786	      0.00000000	      0.00000000	     54.93765690	     -4.50664186	    -14.20466969	     19.73209570	      0.34439004	    -28.09983107	      0.00000000	      0.00000000	    -27.34755318	    -26.55281421	    -24.62451603	     79.11213200	    -15.36221455	     19.76397583	     55.82039047	     87.62190984	      0.00000000	      0.00000000	     89.96122777	     11.76079363	     28.00085023	     37.75342993	     40.60696386	      0.00000000	      0.00000000
      3.78500000	     -3.22739012	      3.01986137	      0.65786969	     -0.43967042	      0.80025600	     -0.80466248	     48.00199723	     -1.58564665	     -8.49252284	     71.78697437	      1.25291906	     21.20846818	      0.00000000	      0.00000000	     54.89275046	     -4.49220078	    -14.20184393	     19.72479785	      0.34426267	    -28.11410565	      0.00000000	      0.00000000	    -27.27322960	    -26.59364899	    -24.70604036	     79.09457922	    -15.33792791	     19.79535876	     55.85145826	     87.62441719	      0.00000000	      0.00000000	     89.96127936	     11.74359566	     28.01590773	     37.73117606	     40.60277269	      0.00000000	      0.00000000
      3.79000000	     -3.23010256	      3.02631859	      0.67898645	     -0.43946413	      0.80161074	     -0.80450112	     47.81330179	     -1.57754433	     -8.50709497	     71.46164659	      1.24724102	     21.08098207	      0.00000000	      0.00000000	     54.80448364	     -4.47827572	    -14.21085211	     19.71398371	      0.34407392	    -28.13113803	      0.00000000	      0.00000000	    -27.20017085	    -26.63410935	    -24.71754894	     79.07227592	    -15.34848917	     19.80539709	     55.86870374	     87.62362402	      0.00000000	      0.00000000	     89.96118260	     11.75554008	     28.04786443	     37.70981375	     40.59788374	      0.00000000	      0.00000000
      3.79500000	     -3.19543229	      2.99111719	      0.72529340	     -0.43922063	      0.80307741	     -0.80433260	     47.54973294	     -1.55239830	     -8.56757108	     71.09049618	      1.24076323	     20.93417542	      0.00000000	      0.00000000	     54.69065989	     -4.47475078	    -14.19427516	     19.72170706	      0.34420872	    -28.14719310	      0.00000000	      0.00000000	    -27.18370275	    -26.63051365	    -24.76782412	     79.04710657	    -15.33940907	     19.80699220	     55.89086506	     87.62065338	      0.00000000	      0.00000000	     89.96121025	     11.72240552	     28.08343948	     37.68345365	     40.59265249	      0.00000000	      0.00000000
      3.80000000	     -3.21452157	      3.00938464	      0.72100792	     -0.43906021	      0.80434872	     -0.80417753	     47.43044441	     -1.56248370	     -8.59024866	     70.86679210	      1.23685885	     20.84798756	      0.00000000	      0.00000000	     54.62240188	     -4.47030529	    -14.18388021	     19.73046916	      0.34436165	    -28.15970351	      0.00000000	      0.00000000	    -27.09343728	    -26.68491065	    -24.75027193	     79.07565613	    -15.36804087	     19.80231214	     55.89662353	     87.61955541	      0.00000000	      0.00000000	     89.96124048	     11.72627608	     28.09728629	     37.69207161	     40.59040853	      0.00000000	      0.00000000
